# xmcd
#
# Track frame offsets:
# 150
# 15783
# 28843
# 43189
# 57507
# 72781
# 86517
# 99815
# 111593
# 124505
# 138484
# 149995
# 163886
# 176549
# 191578
# 207389
# 220537
# 232510
# 244288
# 257418
#
# Disc length: 3598 seconds
#
# Revision: 1
# Processed by: cddbd v1.5.1PL0 Copyright (c) Steve Scherf et al.
# Submitted via: CedeCatalogueitor 2.6.0.4 http://personales.ya.com/cdcatalogueitor
#
DISCID=1b0e0c14
DTITLE=PEPE PINTO - QUEJÍO "Gran Cante" [CD-2)
DYEAR=1998
DGENRE=FLAMENCO
TTITLE0=Glosa A La Soleá
TTITLE1=Como Mi Mare Ninguna
TTITLE2=En Un Palacio He Podido
TTITLE3=Hermana Mía
TTITLE4=Alma De Andalucía
TTITLE5=Azabache, Sangre Y Cobre
TTITLE6=Reflejos De Aragón
TTITLE7=La Caleta Y El Limonar
TTITLE8=Volaba Una Mariposa
TTITLE9=Si Me Pides Juramento
TTITLE10=Que La Luna Está Asomando
TTITLE11=Madruga En San Lorenzo
TTITLE12=Una Rosa Y Un Clavel
TTITLE13=Siguiriya De Tomás
TTITLE14=Recuerdos De La Montaña
TTITLE15=Cantes De Ronda
TTITLE16=El Cante Llora Su Pena
TTITLE17=Aires De Los Puertos
TTITLE18=Siente Tú Mis Penas
TTITLE19=Aire De Los Palmares
EXTD=
EXTT0=
EXTT1=
EXTT2=
EXTT3=
EXTT4=
EXTT5=
EXTT6=
EXTT7=
EXTT8=
EXTT9=
EXTT10=
EXTT11=
EXTT12=
EXTT13=
EXTT14=
EXTT15=
EXTT16=
EXTT17=
EXTT18=
EXTT19=
PLAYORDER=
